<?xml version="1.0" encoding="iso-8859-1"?>
<!-- Uploaded to: SVG Repo, www.svgrepo.com, Generator: SVG Repo Mixer Tools -->
<svg height="800px" width="800px" version="1.1" id="Layer_1" xmlns="http://www.w3.org/2000/svg" xmlns:xlink="http://www.w3.org/1999/xlink"
	 viewBox="0 0 512 512" xml:space="preserve">
<path style="fill:#FFB969;" d="M334.734,149.575c-21.558-2.758-45.199-4.348-71.012-4.612l-42.955,0.823
	c-24.108,1.206-46.103,3.667-66.05,7.23l-39.019,9.082C35.081,185.843-1.134,231.729,0.027,283.981
	C1.723,360.295,176.192,367.078,256,367.078s254.277-6.784,255.973-83.097c1.232-55.448-39.631-103.725-130.972-125.984
	L334.734,149.575z"/>
<g>
	<path style="fill:#FFA561;" d="M155.068,273.029c10.928,0,19.786-8.859,19.786-19.786c0-38.163-10.042-73.92-20.138-100.228
		c-14.006,2.502-27.009,5.545-39.019,9.082c9.379,23.205,19.585,56.429,19.585,91.146
		C135.282,264.171,144.141,273.029,155.068,273.029z"/>
	<path style="fill:#FFA561;" d="M267.277,273.029c10.928,0,19.786-8.859,19.786-19.786c0-42.212-12.287-81.488-23.341-108.281
		c-2.554-0.026-5.125-0.042-7.722-0.042c-12.218,0-23.949,0.3-35.234,0.865c10.326,21.84,26.724,63.453,26.724,107.459
		C247.491,264.171,256.349,273.029,267.277,273.029z"/>
	<path style="fill:#FFA561;" d="M379.485,273.029c10.928,0,19.786-8.859,19.786-19.786c0-35.806-8.84-69.493-18.27-95.247
		c-14.194-3.459-29.603-6.291-46.268-8.422c10.325,22.645,24.965,62.086,24.965,103.669
		C359.699,264.171,368.558,273.029,379.485,273.029z"/>
</g>
<path style="opacity:0.1;enable-background:new    ;" d="M56.559,283.981c-1.161-52.251,35.054-98.138,115.67-121.883l39.019-9.082
	c19.947-3.564,41.942-6.023,66.049-7.23l9.74-0.187c-7.574-0.331-15.329-0.555-23.317-0.637l-42.955,0.823
	c-24.108,1.206-46.103,3.667-66.049,7.23l-39.019,9.082C35.081,185.842-1.134,231.729,0.027,283.981
	C1.723,360.295,176.192,367.079,256,367.079c8.462,0,17.995-0.078,28.266-0.305C197.663,364.856,58.075,352.203,56.559,283.981z"/>
</svg>
