<?xml version="1.0" encoding="iso-8859-1"?>
<svg width="200px" height="200px" viewBox="0 0 512 512" xmlns="http://www.w3.org/2000/svg" xmlns:xlink="http://www.w3.org/1999/xlink" xml:space="preserve">
  <g transform="rotate(90 256 256)">
    <path style="fill:#8CE16E;" d="M248.828,20.323c3.447-5.007,10.898-5.007,14.346,0c17.551,25.487,61.237,97.673,61.237,184.774
      c0,108.997-68.409,202.423-68.409,241.35c0-38.927-68.409-132.354-68.409-241.35C187.591,117.996,231.275,45.81,248.828,20.323z"/>
    <path style="fill:#7DC86E;" d="M248.828,20.323c-17.551,25.488-61.237,97.673-61.237,184.774
      c0,108.997,68.409,202.423,68.409,241.35V16.568C253.275,16.568,250.551,17.82,248.828,20.323z"/>
    <path d="M256,119.716c-4.427,0-8.017,3.589-8.017,8.017v17.102c0,4.427,3.589,8.017,8.017,8.017c4.427,0,8.017-3.589,8.017-8.017
      v-17.102C264.017,123.305,260.427,119.716,256,119.716z"/>
    <path d="M297.436,62.123c-17.282-36.107-34.404-58.13-35.124-59.05C260.792,1.134,258.465,0,256,0c-2.465,0-4.792,1.134-6.312,3.073
      c-0.72,0.919-17.842,22.942-35.124,59.05c-15.963,33.351-34.99,85.474-34.99,144.402c0,71.208,27.447,136.09,47.487,183.467
      c11.227,26.538,20.923,49.459,20.923,62.684v51.307c0,4.427,3.589,8.017,8.017,8.017c4.427,0,8.017-3.589,8.017-8.017v-51.307
      c0-13.225,9.696-36.146,20.923-62.684c20.04-47.375,47.487-112.258,47.487-183.467C332.426,147.597,313.399,95.474,297.436,62.123z
       M270.172,383.746c-2.143,5.068-4.205,9.944-6.156,14.641v-103.55c17.061-10.888,32.171-33.358,32.858-34.388
      c2.455-3.682,1.46-8.656-2.221-11.112c-3.682-2.457-8.658-1.464-11.118,2.216c-3.083,4.613-10.883,14.982-19.52,22.977v-65.203
      c17.061-10.888,32.171-33.358,32.858-34.388c2.455-3.682,1.46-8.656-2.221-11.112c-3.682-2.457-8.658-1.464-11.118,2.216
      c-3.083,4.613-10.883,14.982-19.52,22.977v-9.978c0-4.427-3.589-8.017-8.017-8.017s-8.017,3.589-8.017,8.017v61.282
      c-8.633-7.993-16.433-18.358-19.518-22.973c-2.456-3.684-7.434-4.68-11.116-2.223c-3.684,2.455-4.68,7.433-2.223,11.117
      c0.687,1.031,15.797,23.501,32.858,34.388v47.237c-4.914-5.149-9.107-10.779-10.968-13.561c-2.455-3.682-7.433-4.677-11.115-2.222
      c-3.684,2.455-4.68,7.433-2.223,11.116c1.284,1.926,11.834,17.412,24.307,25.77v69.414c-1.951-4.697-4.012-9.573-6.156-14.641
      c-19.503-46.11-46.218-109.261-46.218-177.218c0-87.073,43.765-160.094,60.399-184.696c16.642,24.574,60.386,97.479,60.386,184.696
      C316.392,274.482,289.678,337.634,270.172,383.746z"/>
  </g>
</svg>
